<!DOCTYPE svg PUBLIC "-//W3C//DTD SVG 1.1//EN" "http://www.w3.org/Graphics/SVG/1.1/DTD/svg11.dtd">

<!-- Uploaded to: SVG Repo, www.svgrepo.com, Transformed by: SVG Repo Mixer Tools -->
<svg fill="white" width="46px" height="46px" viewBox="0 0 256.00 256.00" id="Flat" xmlns="http://www.w3.org/2000/svg" stroke="#000000" stroke-width="0.00256">

<g id="SVGRepo_bgCarrier" stroke-width="0"/>

<g id="SVGRepo_tracerCarrier" stroke-linecap="round" stroke-linejoin="round" stroke="#CCCCCC" stroke-width="6.144"/>

<g id="SVGRepo_iconCarrier"> <path d="M228,128A100,100,0,1,0,127.98877,228l.01123.001.01123-.001A100.11345,100.11345,0,0,0,228,128Zm-96,91.90771V148.001h28a4,4,0,0,0,0-8H132v-28a20.02229,20.02229,0,0,1,20-20h16a4,4,0,0,0,0-8H152a28.03145,28.03145,0,0,0-28,28v28H96a4,4,0,0,0,0,8h28v71.90673a92,92,0,1,1,8,0Z"/> </g>

</svg>